<svg width="24" height="24" viewBox="0 0 24 24" fill="none" xmlns="http://www.w3.org/2000/svg">
<path d="M11.1 3C11.3652 3.00004 11.6195 3.10541 11.807 3.29294C11.9945 3.48048 12.0998 3.73481 12.0998 4C12.0998 4.26519 11.9945 4.51952 11.807 4.70705C11.6195 4.89458 11.3652 4.99996 11.1 5H4.09998L3.96398 5.01C3.74762 5.0391 3.5468 5.13842 3.39234 5.2927C3.23789 5.44697 3.13834 5.64768 3.10898 5.864L3.09998 6V20L3.10998 20.136C3.13908 20.3524 3.2384 20.5532 3.39267 20.7076C3.54695 20.8621 3.74765 20.9616 3.96398 20.991L4.09998 21H18.1L18.236 20.99C18.4523 20.9609 18.6532 20.8616 18.8076 20.7073C18.9621 20.553 19.0616 20.3523 19.091 20.136L19.1 20V13C19.1 12.7348 19.2053 12.4804 19.3929 12.2929C19.5804 12.1054 19.8348 12 20.1 12C20.3652 12 20.6195 12.1054 20.8071 12.2929C20.9946 12.4804 21.1 12.7348 21.1 13V20C21.1 20.7956 20.7839 21.5587 20.2213 22.1213C19.6587 22.6839 18.8956 23 18.1 23H4.09998C3.30433 23 2.54126 22.6839 1.97866 22.1213C1.41605 21.5587 1.09998 20.7956 1.09998 20V6C1.09998 5.20435 1.41605 4.44129 1.97866 3.87868C2.54126 3.31607 3.30433 3 4.09998 3H11.1ZM22.03 1.879C22.5924 2.44158 22.9083 3.2045 22.9083 4C22.9083 4.79549 22.5924 5.55841 22.03 6.121L13.544 14.607L13.457 14.684C13.3315 14.7832 13.184 14.8507 13.027 14.881L13.011 14.884L10.056 15.405V15.404L8.16998 15.738L8.53998 13.641L9.02398 10.897L9.02698 10.881C9.03246 10.8531 9.03913 10.8254 9.04698 10.798L9.04098 10.82L9.05698 10.765C9.09178 10.6523 9.14741 10.5472 9.22098 10.455C9.24587 10.4231 9.27258 10.3928 9.30098 10.364L17.787 1.879C18.0656 1.60037 18.3963 1.37934 18.7603 1.22855C19.1243 1.07775 19.5145 1.00014 19.9085 1.00014C20.3025 1.00014 20.6926 1.07775 21.0566 1.22855C21.4207 1.37934 21.7514 1.60037 22.03 1.879ZM19.288 3.215L19.201 3.293L10.939 11.555L10.636 13.271L12.354 12.968L20.615 4.708C20.7886 4.53473 20.8924 4.3037 20.9068 4.05885C20.9212 3.814 20.8451 3.5724 20.693 3.38L20.615 3.293C20.4418 3.11967 20.2109 3.01597 19.9663 3.00159C19.7217 2.98721 19.4803 3.06315 19.288 3.215Z" fill="#C5C7CD"/>
</svg>
